<svg width="24" height="20" viewBox="0 0 24 20" fill="none" xmlns="http://www.w3.org/2000/svg">
<path fill-rule="evenodd" clip-rule="evenodd" d="M12 3.91439C10.3971 3.91439 9.09766 4.94836 9.09766 6.22381C9.09766 7.49927 10.3971 8.53323 12 8.53323C13.603 8.53323 14.9024 7.49927 14.9024 6.22381C14.9024 4.94836 13.603 3.91439 12 3.91439ZM7.09766 6.22381C7.09766 4.06945 9.29253 2.323 12 2.323C14.7075 2.323 16.9024 4.06945 16.9024 6.22381C16.9024 8.37818 14.7075 10.1246 12 10.1246C9.29253 10.1246 7.09766 8.37818 7.09766 6.22381Z" fill="#9098B1"/>
<path fill-rule="evenodd" clip-rule="evenodd" d="M9.51784 12.9773C6.47035 12.9773 4 14.9429 4 17.3678V17.4403C4 17.8798 3.55228 18.236 3 18.236C2.44772 18.236 2 17.8798 2 17.4403V17.3678C2 14.064 5.36578 11.3859 9.51784 11.3859H14.4822C18.6342 11.3859 22 14.064 22 17.3678V17.4403C22 17.8798 21.5523 18.236 21 18.236C20.4477 18.236 20 17.8798 20 17.4403V17.3678C20 14.9429 17.5296 12.9773 14.4822 12.9773H9.51784Z" fill="#9098B1"/>
</svg>
