<svg width="20" height="17" viewBox="0 0 20 17" fill="none" xmlns="http://www.w3.org/2000/svg">
<path d="M7.1875 15.4408C7.49816 15.4408 7.75 15.2404 7.75 14.9932C7.75 14.746 7.49816 14.5457 7.1875 14.5457C6.87684 14.5457 6.625 14.746 6.625 14.9932C6.625 15.2404 6.87684 15.4408 7.1875 15.4408Z" fill="#9098B1" stroke="#9098B1" stroke-width="2" stroke-miterlimit="10" stroke-linecap="round" stroke-linejoin="round"/>
<path d="M15.0625 15.4408C15.3732 15.4408 15.625 15.2404 15.625 14.9932C15.625 14.746 15.3732 14.5457 15.0625 14.5457C14.7518 14.5457 14.5 14.746 14.5 14.9932C14.5 15.2404 14.7518 15.4408 15.0625 15.4408Z" fill="#9098B1" stroke="#9098B1" stroke-width="2" stroke-miterlimit="10" stroke-linecap="round" stroke-linejoin="round"/>
<path d="M1 1.11829H3.25L5.5 11.8602H16.75L19 3.80377H4.375" stroke="#9098B1" stroke-width="2" stroke-linecap="round" stroke-linejoin="round"/>
</svg>
