<svg width="18" height="21" viewBox="0 0 18 21" fill="none" xmlns="http://www.w3.org/2000/svg">
<path fill-rule="evenodd" clip-rule="evenodd" d="M9 2.88805C5.66878 2.88805 2.96875 5.60516 2.96875 8.95745V14.241C2.96875 14.3573 2.94874 14.4726 2.90962 14.582L2.5479 15.5929H15.4521L15.0904 14.582C15.0513 14.4726 15.0312 14.3573 15.0312 14.241V8.95745C15.0312 5.60516 12.3312 2.88805 9 2.88805ZM0.968749 8.95745C0.968749 4.49361 4.56421 0.875397 9 0.875397C13.4358 0.875397 17.0312 4.49361 17.0312 8.95745V14.0654L17.8159 16.2583C17.9262 16.5667 17.8804 16.9098 17.6932 17.1779C17.5059 17.446 17.2007 17.6056 16.875 17.6056H1.125C0.799345 17.6056 0.494088 17.446 0.30684 17.1779C0.119592 16.9098 0.0738077 16.5667 0.184129 16.2583L0.968749 14.0654V8.95745Z" fill="#9098B1"/>
<path fill-rule="evenodd" clip-rule="evenodd" d="M5.625 15.5929C6.17728 15.5929 6.625 16.0435 6.625 16.5992C6.625 17.9194 7.68816 18.9893 9 18.9893C10.3118 18.9893 11.375 17.9194 11.375 16.5992C11.375 16.0435 11.8227 15.5929 12.375 15.5929C12.9273 15.5929 13.375 16.0435 13.375 16.5992C13.375 19.0309 11.4164 21.0019 9 21.0019C6.58359 21.0019 4.625 19.0309 4.625 16.5992C4.625 16.0435 5.07272 15.5929 5.625 15.5929Z" fill="#9098B1"/>
</svg>
